<?xml version="1.0" ?><svg width="512px" height="512px" viewBox="0 0 512 512" id="Layer_1" style="enable-background:new 0 0 512 512;" version="1.1" xml:space="preserve" xmlns="http://www.w3.org/2000/svg" xmlns:xlink="http://www.w3.org/1999/xlink"><style type="text/css">
	.st0{fill:#231F20;}
</style><path class="st0" d="M388.2,128.4c-3.9-3.9-10.2-3.9-14.1,0l-50.8,50.8l-2.1-2.1c-5.7-5.7-13.2-8.8-21.2-8.8c-8,0-15.5,3.1-21.2,8.8  L157.2,298.5c-1.9,1.9-2.9,4.4-2.9,7.1s1.1,5.2,2.9,7.1l16.3,16.3l-42.9,42.9l-21-21c-3.9-3.9-10.2-3.9-14.1,0  c-3.9,3.9-3.9,10.2,0,14.1l55.4,55.4c2,2,4.5,2.9,7.1,2.9s5.1-1,7.1-2.9c3.9-3.9,3.9-10.2,0-14.1L144.7,386l42.9-42.9l16.3,16.3  c2,2,4.5,2.9,7.1,2.9s5.1-1,7.1-2.9l121.4-121.4c5.7-5.7,8.8-13.2,8.8-21.2c0-8-3.1-15.5-8.8-21.2l-2.1-2.1l50.8-50.8  C392.1,138.6,392.1,132.3,388.2,128.4z M325.4,223.8L211,338.1l-32.5-32.5l114.4-114.4c1.9-1.9,4.4-2.9,7.1-2.9c2.7,0,5.2,1,7.1,2.9  l9.1,9.1c0,0,0,0,0.1,0.1s0,0,0.1,0.1l9.1,9.1c1.9,1.9,2.9,4.4,2.9,7.1C328.3,219.4,327.2,221.9,325.4,223.8z"/></svg>