<svg version="1.2" xmlns="http://www.w3.org/2000/svg" viewBox="0 0 745 745" width="745" height="745">
	<title>LoginUndraw-svg</title>
	<style>
		.s0 { fill: #f2f2f2 } 
		.s1 { fill: #e6e6e6 } 
		.s2 { fill: #ffffff } 
		.s3 { fill: #cccccc } 
		.s4 { fill: #96cd7a } 
		.s5 { fill: #3f3d56 } 
		.s6 { fill: #ffb8b8 } 
		.s7 { fill: #2f2e41 } 
	</style>
	<path id="fa3b9e12-7275-481e-bee9-64fd9595a50d-55" class="s0" d="m73.2 607.1c16.4 7.6 32.8 17.4 45.8 29.5 42.1 39.1 63.5 84.5 47.8 101.5-15.8 17-62.7-1-104.8-40.1q-1.6-1.4-3.1-2.9-1.5-1.5-3-3.1-1.4-1.6-2.8-3.2-1.5-1.6-2.8-3.2l26.2-3.8-33.7-5.9c-29-40.1-42.8-92.6-42.8-92.6 0 0 10.2 1.9 25.2 6.2l3.4 13.2 0.8-12q4.6 1.3 9.1 2.8 4.5 1.5 8.9 3.1 4.5 1.6 8.9 3.3 4.4 1.7 8.8 3.6l6.5 25.8z"/>
	<path id="bde08021-c30f-4979-a9d8-cb90b72b5ca2-56" class="s0" d="m146.8 583c10.1 15 19.1 31.8 24.1 48.9 15.8 55.3 10.6 105.2-11.6 111.6-22.3 6.4-53.2-33.2-69-88.4q-0.6-2.1-1.1-4.2-0.5-2-1-4.1-0.5-2.1-0.8-4.2-0.4-2.1-0.7-4.2l24.3 10.3-25.8-22.5c-4-49.3 11.3-101.4 11.3-101.4 0 0 7.8 6.9 18.4 18.3l-4 13.1 7-9.9q3.2 3.5 6.3 7.1 3 3.6 6 7.3 3 3.7 5.9 7.4 2.9 3.8 5.7 7.6l-7.8 25.5z"/>
	<path id="b3ac2088-de9b-4f7f-bc99-0ed9705c1a9d-57" class="s1" d="m519.7 256.8h-4v423.1c0 8.5-1.7 16.9-5 24.8-3.2 7.9-8 15-14 21.1-6.1 6-13.2 10.8-21.1 14-7.9 3.3-16.3 5-24.8 5h-237.5c-8.6 0-17-1.7-24.9-5-7.8-3.2-15-8-21-14-6-6.1-10.8-13.2-14.1-21.1-3.2-7.9-4.9-16.3-4.9-24.8v-615c0-8.5 1.7-17 4.9-24.8 3.3-7.9 8.1-15.1 14.1-21.1 6-6 13.2-10.8 21-14.1 7.9-3.2 16.3-4.9 24.9-4.9h237.5c8.5 0 16.9 1.7 24.8 4.9 7.9 3.3 15 8.1 21.1 14.1 6 6 10.8 13.2 14 21.1 3.3 7.8 5 16.3 5 24.8v112.1h4.1z"/>
	<path id="b2715b96-3117-487c-acc0-20904544b5b7-58" class="s2" d="m471.9 20.6c5.9 2.4 11.3 6 15.8 10.5 4.5 4.5 8 9.8 10.5 15.7 2.4 5.9 3.6 12.2 3.6 18.5v614.1c0 6.4-1.2 12.7-3.6 18.6-2.5 5.9-6 11.2-10.5 15.7-4.5 4.5-9.9 8.1-15.8 10.5-5.8 2.4-12.1 3.7-18.5 3.7h-238.7c-6.3 0-12.6-1.3-18.5-3.7-5.9-2.4-11.2-6-15.7-10.5-4.5-4.5-8.1-9.8-10.5-15.7-2.5-5.9-3.7-12.2-3.7-18.6v-614.1c0-6.3 1.2-12.6 3.7-18.5 2.4-5.9 6-11.2 10.5-15.7 4.5-4.5 9.8-8.1 15.7-10.5 5.9-2.5 12.2-3.7 18.5-3.7h29c-1.4 3.5-2 7.3-1.6 11 0.4 3.8 1.7 7.4 3.8 10.5 2.1 3.1 5 5.7 8.3 7.5 3.3 1.8 7 2.7 10.8 2.7h136.1c3.8 0 7.5-0.9 10.8-2.7 3.3-1.8 6.2-4.4 8.3-7.5 2.1-3.1 3.4-6.7 3.8-10.5 0.4-3.7-0.2-7.5-1.6-11h31c6.4 0 12.7 1.2 18.5 3.7z"/>
	<path id="b06d66ec-6c84-45dd-8c27-1263a6253192-59" class="s3" d="m304.5 267.8q0.8 3.1 2.4 5.9 1.6 2.8 3.9 5.1 2.3 2.3 5.1 3.9c-7.6 4.3-16.9 4.3-24.5 0-7.5-4.4-12.2-12.5-12.2-21.2 0-8.7 4.7-16.8 12.2-21.2 7.6-4.3 16.9-4.3 24.5 0q-2.8 1.6-5.1 3.9-2.3 2.3-3.9 5.1-1.6 2.8-2.4 5.9-0.8 3.1-0.8 6.3 0 3.2 0.8 6.3z"/>
	<path id="e73810fe-4cf4-40cc-8c7c-ca544ce30bd4-60" class="s3" d="m335.2 267.8q0.9 3.1 2.5 5.9 1.6 2.8 3.9 5.1 2.2 2.3 5 3.9c-7.5 4.3-16.9 4.3-24.4 0-7.6-4.4-12.3-12.5-12.3-21.2 0-8.7 4.7-16.8 12.3-21.2 7.5-4.3 16.9-4.3 24.4 0q-2.8 1.6-5 3.9-2.3 2.3-3.9 5.1-1.6 2.8-2.5 5.9-0.8 3.1-0.8 6.3 0 3.2 0.8 6.3z"/>
	<circle id="a4813fcf-056e-4514-bb8b-e6506f49341f" class="s4" cx="364.4" cy="261.5" r="24.4"/>
	<path id="bbe451c3-febc-41ba-8083-4c8307a2e73e-61" fill-rule="evenodd" class="s3" d="m405.3 337.9h-142.5q-1 0-2-0.4-0.9-0.4-1.6-1.1-0.7-0.8-1.1-1.7-0.4-0.9-0.4-1.9v-142.5q0-1.1 0.4-2 0.4-0.9 1.1-1.7 0.7-0.7 1.6-1.1 1-0.4 2-0.4h142.5q1 0 2 0.4 0.9 0.4 1.6 1.1 0.7 0.8 1.1 1.7 0.4 0.9 0.4 2v142.5q0 1-0.4 1.9-0.4 0.9-1.1 1.7-0.7 0.7-1.6 1.1-1 0.4-2 0.4zm-142.5-150.7q-0.6 0-1.2 0.2-0.5 0.3-1 0.7-0.4 0.4-0.6 1-0.3 0.5-0.3 1.2v142.5q0 0.6 0.3 1.1 0.2 0.6 0.6 1 0.5 0.5 1 0.7 0.6 0.2 1.2 0.2h142.5q0.6 0 1.2-0.2 0.5-0.2 1-0.7 0.4-0.4 0.6-1 0.3-0.5 0.3-1.1v-142.5q0-0.7-0.3-1.2-0.2-0.6-0.6-1-0.5-0.4-1-0.7-0.6-0.2-1.2-0.2z"/>
	<path id="bb28937d-932f-4fdf-befe-f406e51091fe" class="s3" d="m218.6 447.1h218.5v2h-218.5z"/>
	<circle id="fcef55fc-4968-45b2-93bb-1a1080c85fc7" class="s4" cx="225.5" cy="427.4" r="6.9"/>
	<path id="ff33d889-4c74-4b91-85ef-b4882cc8fe76" class="s3" d="m218.6 516.1h218.5v2.1h-218.5z"/>
	<circle id="e8fa0310-b872-4adf-aedd-0c6eda09f3b8" class="s4" cx="225.5" cy="496.4" r="6.9"/>
	<path id="Layer" class="s4" d="m433.1 594.7h-69.1q-0.8 0-1.7-0.3-0.8-0.4-1.4-1-0.7-0.6-1-1.5-0.4-0.8-0.4-1.7v-24.2q0-0.9 0.4-1.7 0.3-0.8 1-1.5 0.6-0.6 1.4-1 0.9-0.3 1.7-0.3h69.1q0.9 0 1.7 0.3 0.9 0.4 1.5 1 0.6 0.7 1 1.5 0.3 0.8 0.3 1.7v24.2q0 0.9-0.3 1.7-0.4 0.9-1 1.5-0.6 0.6-1.5 1-0.8 0.3-1.7 0.3z"/>
	<circle id="e12ee00d-aa4a-4413-a013-11d20b7f97f7" class="s4" cx="248" cy="427.4" r="6.9"/>
	<circle id="f58f497e-6949-45c8-be5f-eee2aa0f6586" class="s4" cx="270.5" cy="427.4" r="6.9"/>
	<circle id="b4d4939a-c6e6-4f4d-ba6c-e8b05485017d" class="s4" cx="248" cy="496.4" r="6.9"/>
	<circle id="aff120b1-519b-4e96-ac87-836aa55663de" class="s4" cx="270.5" cy="496.4" r="6.9"/>
	<path id="f1094013-1297-477a-ac57-08eac07c4bd5-62" class="s5" d="m742.1 747.1h-718c-1.6 0-2.8-0.6-2.8-1.2 0-0.7 1.2-1.3 2.8-1.3h718c1.5 0 2.7 0.6 2.7 1.3 0 0.6-1.2 1.2-2.7 1.2z"/>
	<path id="Layer" class="s6" d="m564.7 489.5q0.2 0 0.3 0.1 0.2 0.1 0.4 0.2 0.2 0.1 0.3 0.2 0.2 0.1 0.4 0.2l44.8-19.1 1.6-11.8 18-0.1-1.1 27.1-59.2 15.6q0 0.2-0.1 0.3 0 0.2-0.1 0.3-0.1 0.2-0.1 0.3-0.1 0.2-0.1 0.3c-1.8 3.8-5.6 6.1-9.7 5.9-4.2-0.1-7.8-2.8-9.2-6.6-1.4-3.9-0.4-8.3 2.6-11.1 3-2.8 7.4-3.5 11.2-1.8z"/>
	<path id="Layer" class="s6" d="m637 735h-12.3l-5.8-47.3h18.1v47.3z"/>
	<path id="Layer" class="s7" d="m616 731.5h23.6v14.9h-38.5c0-2 0.4-3.9 1.1-5.7 0.8-1.8 1.9-3.4 3.2-4.8 1.4-1.4 3.1-2.5 4.9-3.2 1.8-0.8 3.7-1.2 5.7-1.2z"/>
	<path id="Layer" class="s6" d="m684.7 731.6l-12.2 1.2-10.5-46.5 18-1.8 4.7 47.1z"/>
	<path id="Layer" class="s7" d="m663.4 730.1l23.5-2.3 1.5 14.8-38.4 3.8c-0.1-1.9 0-3.9 0.6-5.8 0.6-1.8 1.5-3.6 2.8-5.1 1.2-1.5 2.7-2.8 4.4-3.7 1.8-0.9 3.7-1.5 5.6-1.7z"/>
	<circle id="Layer" class="s6" cx="640.4" cy="384.6" r="24.6"/>
	<path id="Layer" class="s7" d="m622 725.5q-0.8 0-1.6-0.3-0.7-0.3-1.3-0.8-0.6-0.5-1-1.2-0.4-0.7-0.5-1.4c-6.4-35.3-27.1-150.4-27.6-153.6q0-0.1 0-0.1 0 0 0 0 0-0.1 0-0.1 0 0 0-0.1v-8.5q0-0.2 0-0.3 0-0.1 0-0.2 0.1-0.1 0.1-0.2 0.1-0.1 0.1-0.2l2.8-3.9q0.1-0.1 0.2-0.2 0.1-0.1 0.3-0.2 0.1-0.1 0.3-0.1 0.2-0.1 0.3-0.1c15.7-0.7 66.8-2.9 69.3 0.2 2.5 3.1 1.6 12.5 1.4 14.4v0.2l23 147q0.1 0.9-0.1 1.7-0.2 0.9-0.7 1.6-0.5 0.7-1.3 1.2-0.8 0.5-1.6 0.6l-14.4 2.4q-0.8 0.1-1.6-0.1-0.8-0.1-1.5-0.5-0.7-0.5-1.2-1.1-0.5-0.6-0.7-1.4c-4.5-14.2-19.3-61.9-24.5-80.4q-0.1-0.2-0.2-0.3-0.2-0.1-0.4-0.1-0.1 0.1-0.3 0.2-0.1 0.1-0.1 0.3c0.3 17.6 0.9 62.6 1.1 78.1v1.6q0 0.9-0.3 1.7-0.3 0.8-0.8 1.4-0.6 0.6-1.4 1-0.7 0.4-1.6 0.5l-13.8 1.2q-0.2 0.1-0.4 0.1z"/>
	<path id="ae7af94f-88d7-4204-9f07-e3651de85c05-63" class="s4" d="m628.2 418c3.6-0.9 7.4-1.4 11.1-1.5 3.8 0 7.5 0.3 11.2 1.1 3.6 0.8 7.2 2 10.6 3.5 3.4 1.6 6.6 3.6 9.5 5.9q0.7 0.5 1.4 1 0.6 0.6 1.2 1.2 0.6 0.6 1.2 1.2 0.6 0.6 1.1 1.2l-6.4 68.1-4.5 62.2c0 0-2.6-15.4-25-3.8-22.5 11.5-32.1 14.7-48.8 0.6l19.2-73.2 1.6-27.6q0.2-3.4 0.6-6.8 0.4-3.5 1-6.9 0.6-3.4 1.4-6.7 0.9-3.4 1.9-6.7c1.5-4.8 4-9.5 8.3-12z"/>
	<path id="Layer" class="s6" d="m618.6 504.2q0.1 0.1 0.3 0.2 0.2 0.1 0.4 0.2 0.2 0 0.4 0.1 0.2 0.1 0.4 0.2l44.3-22.2 0.7-12 18.3-1.2 1 27.4-59.3 19.6c-0.9 4.2-4.5 7.4-8.8 8-4.3 0.6-8.5-1.6-10.6-5.4-2.1-3.9-1.6-8.6 1.3-11.9 2.9-3.3 7.5-4.5 11.6-3z"/>
	<path id="a6768b0e-63d0-4b31-8462-9b2e0b00f0fd-64" class="s4" d="m675.2 432c10.9 3.8 12.8 45.5 12.8 45.5-12.8-7-28.2 4.5-28.2 4.5 0 0-3.2-10.9-7.1-25q-0.8-3-1-6.1-0.1-3.1 0.6-6.1 0.7-3.1 2.1-5.8 1.4-2.8 3.5-5.1c1.3-1.6 6.4-5.8 17.3-1.9z"/>
	<path id="bfd7963f-0cf8-4885-9d3a-2c00bccda2e3-65" class="s7" d="m662.4 391.1c-3-2.5-7.2 2-7.2 2l-2.5-22.1c0 0-15.3 1.9-25.1-0.6-9.8-2.4-11.3 8.9-11.3 8.9q-0.2-1.7-0.3-3.4-0.1-1.8-0.1-3.5-0.1-1.7 0-3.4 0-1.7 0.1-3.5c0.6-5.5 8.6-11 22.7-14.7 14-3.6 21.4 12.3 21.4 12.3 9.8 4.9 5.4 30.4 2.3 28z"/>
</svg>